<svg xmlns="http://www.w3.org/2000/svg" width="100" height="100" viewBox="0 0 100 100">
  <path fill="#b8bb26" fill-rule="evenodd" d="M70.912 99.317a6.22 6.22 0 0 0 4.96-.19l20.589-9.907A6.25 6.25 0 0 0 100 83.587V16.413a6.25 6.25 0 0 0-3.54-5.632L75.874.874a6.23 6.23 0 0 0-7.104 1.21L29.355 38.04 12.187 25.01a4.16 4.16 0 0 0-5.318.236l-5.506 5.009a4.17 4.17 0 0 0-.004 6.162L16.247 50 1.36 63.583a4.17 4.17 0 0 0 .004 6.162l5.506 5.01a4.16 4.16 0 0 0 5.318.236l17.168-13.032L68.77 97.917a6.2 6.2 0 0 0 2.143 1.4M75.015 27.3 45.11 50l29.906 22.701z" clip-rule="evenodd"/>
</svg>
